Patient4_TMGait_0pt5_02_left_17_EMG.mot
version=1
nRows=26
nColumns=33
inDegrees=no
endheader
time	1LAddLong	2LGlutMax	3LGlutMed	4LIliopsoas	5LSemiMemb	6LBicFemLong	7LRecFem	8LVastMed	9LVastLat	10LGasMed	11LTibAnt	12lTibPost	13LPeroneusLong	14LSol	15LExtDigLong	16LFlexDigLong	17RAddLong	18RGlutMax	19RGlutMed	20RIliopsoas	21RSemiMemb	22RBicFemLong	23RRecFem	24RVastMed	25RVastLat	26RGasMed	27RTibAnt	28RTibPost	29RPeroneusLong	30RSol	31RExtDigLong	32RFlexDigLong
21.53	0.003204	0.27115	-0.058441	0.001373	-0.000916	0.005646	0.28809	0.025177	-0.15747	-0.023193	0.036316	-0.005493	-0.022583	0.058899	0.2562	-0.022888	-0.009918	0.15778	0.59799	-0.06958	0.053711	0.32669	0.015106	0.009155	-0.02655	-0.13473	0.005035	-0.049591	-0.327	0.12192	-0.005493	-0.005493
21.531	0.002747	0.24841	-0.044861	-0.018768	0.005493	0.028076	0.16632	0.020294	-0.17059	-0.04303	0.096741	-0.01358	0.056	0.025024	0.17029	-0.003967	-0.019989	0.18066	0.6575	-0.067596	0.064697	0.42221	0.027771	0.062103	-0.027161	0.03952	0.021515	-0.042114	0.14603	0.18143	-0.003204	0.002136
21.532	-0.002441	0.20691	-0.043182	0.001984	0.001373	0.001984	0.095673	0.018616	-0.19363	-0.022888	0.20264	-0.007324	0.068054	0.04303	0.42786	-0.000763	-0.010071	0.17258	0.62973	-0.018158	0.075684	0.60898	0.013123	0.04364	0.003662	0.052795	0.040283	-0.012512	0.57266	0.12375	-0.003357	0.002899
21.533	0.00412	0.18662	-0.049744	0.019684	-0.003815	-0.00061	0.10742	0.019379	-0.20416	-0.049744	0.1767	-0.002136	0.1001	0.091553	0.73975	-0.029755	0.021973	0.15839	0.20508	0.054016	0.050201	0.21576	0.049744	0.029755	-0.016632	0.037994	0.016937	0.10208	1.0414	0.070038	-0.003357	-0.003052
21.534	0.006866	0.19898	-0.080566	0.032043	-0.005341	0.011139	0.12695	0.025787	-0.22446	-0.056763	-0.023651	-0.005493	0.062714	0.11307	0.17883	-0.011292	0.024414	0.20065	0.012665	0.036163	0.040283	0.11871	0.076904	-0.063477	-0.010681	0.042114	-0.062256	0.00824	1.0976	-0.15793	-0.00473	-0.00473
21.535	0.001984	0.14771	-0.091858	0.019836	-0.007782	0.005646	0.14465	0.022125	-0.21301	-0.049438	-0.036469	-0.008392	0.044708	0.12817	-0.56656	0.000916	0.027924	0.17059	0.076294	-0.076141	-0.18646	0.19241	0.082855	-0.014801	0.055847	0.047455	-0.033569	-0.011444	-0.63904	-0.22522	-0.001831	-0.004883
21.536	0.010529	0.13458	-0.080719	0.00412	0.002289	-0.005188	0.009003	0.023956	-0.21835	-0.022278	-0.081177	-0.010223	0.012054	0.18677	-0.37735	0.005188	0.03418	0.12039	-0.063171	-0.03418	-0.44388	0.17731	0.1001	-0.075836	0.01297	-0.014954	0.11322	-0.02121	-2.4104	-0.09201	-0.005951	0.00061
21.537	0.007172	0.068359	-0.076294	0.008392	0.012054	-0.025482	-0.21286	0.028076	-0.22476	-0.00351	-0.13931	-0.00412	0.024414	0.20828	-0.33661	-0.003204	0.051727	-0.037994	0.26367	0.076904	-0.079651	0.090179	0.10269	-0.13886	-0.014648	-0.03418	0.098267	-0.00473	-2.1422	0.094757	-0.005493	0
21.538	0.007782	0.069733	-0.049286	0.007477	0.031281	-0.023651	-0.22568	0.029297	-0.22461	-0.022278	-0.22751	-0.009003	0.046387	0.12665	-0.2034	-0.005646	0.064087	-0.15121	0.1738	0.23621	0.34042	0.091248	0.06897	-0.084839	-0.007935	0.029449	0.069122	-0.012817	-1.6357	0.21973	-0.000763	0.002594
21.539	0.00946	0.060272	-0.050049	-0.004272	0.0383	-0.020599	-0.11551	0.026093	-0.2388	-0.075836	-0.21805	-0.006866	0.13657	0.14114	0.72586	-0.01709	0.054169	-0.16449	-0.093994	0.16937	0.30579	0.041962	0.010834	-0.097504	-0.050354	0.012054	0.088501	-0.0177	0.8699	0.001221	-0.002594	-0.000458
21.54	0.006866	0.068054	-0.05249	0.007477	0.021667	-0.054474	-0.051422	0.03067	-0.25696	-0.077209	0.14481	-0.001984	0.087433	0.081177	-0.50064	-0.023956	0.006561	-0.16312	0.18662	0.085297	-0.16388	0.10437	-0.11673	0.015564	-0.047302	0.006256	0.091553	-0.018463	1.1232	-0.14725	-0.000763	0.000458
21.541	0.005646	-0.002594	-0.056458	0.010071	0.015564	-0.048065	0.041809	0.012665	-0.30151	-0.053406	0.32608	-0.001526	-0.050507	-0.010223	-0.29266	-0.024719	-0.019379	-0.11566	-0.13412	-0.007935	-0.25269	0.0383	-0.10346	0.05661	-0.024109	0.015411	-0.10025	-0.010681	1.8274	-0.13107	-0.003357	0.00351
21.542	-0.072632	-0.024109	-0.048065	0.015259	-0.004883	-0.042877	0.11658	0.010529	-0.32745	-0.07309	0.38727	-0.00885	-0.032654	0.015717	-0.57846	0.001831	0.023804	-0.11856	-0.35492	-0.094757	0.000305	0.024109	0.011749	0.020294	-0.002136	0.019836	-0.17075	-0.016174	1.8042	0.025635	-0.00351	0.005646
21.543	0.034332	-0.019073	-0.041962	0.044861	0.012512	-0.043945	0.1033	0.010071	-0.30411	-0.09964	-0.17914	-0.003052	0.028687	0.054932	-0.44678	-0.010986	-0.00412	-0.086975	-0.12772	-0.072784	-0.031433	0.057831	0.010376	0.071411	0.071564	0.02594	-0.1297	-0.019073	-0.55054	0.037994	-0.001984	-0.000305
21.544	0.007477	-0.025177	-0.040741	0.007019	-0.001526	-0.040741	0.15869	-0.003815	-0.22324	-0.074463	-0.47333	-0.008545	0.02182	0.062561	-0.20004	0.003662	-0.056458	-0.087585	0.2681	-0.091553	-0.072021	-0.060883	-0.041504	0.14435	0.13809	0.017853	-0.091858	-0.027924	-1.0637	-0.028839	-0.00412	-0.002136
21.545	0.032043	-0.024567	-0.040436	0.022125	0.026398	-0.051422	0.2948	-0.011902	-0.18021	-0.022125	-0.19562	-0.004425	0.003204	-0.022888	0.007782	-0.02182	-0.06897	-0.08606	0.1004	-0.071411	0.1355	-0.18829	-0.058899	0.10147	0.15274	0.004883	-0.057526	-0.019531	-1.3138	0.075378	-0.010376	0.001678
21.546	0.015411	-0.028992	-0.061035	0.005646	0.003662	-0.028534	0.36362	-0.006561	-0.12665	0.011444	-0.15472	-0.00061	-0.011902	-0.14343	0.098419	-0.012817	-0.009918	-0.085144	-0.079498	-0.074005	-0.013275	-0.26642	-0.013733	-0.001221	0.11002	-0.000916	-0.052795	-0.02182	-0.11307	-0.031738	-0.002594	-0.003967
21.547	0.011444	-0.041962	-0.023041	0.012207	0.022583	-0.02533	0.38162	-0.002136	-0.079498	0.006714	-0.041656	-0.002441	0.018921	-0.16846	0.31128	-0.016785	0.030365	-0.18814	-0.18021	-0.15564	-0.010223	-0.38254	0.031738	-0.003815	0.065155	0.016174	-0.084991	-0.025177	0.84	-0.042267	-0.003357	-0.001526
21.548	0.010834	-0.054169	-0.013885	-0.009003	0.010986	-0.02594	0.25055	0.006256	-0.065308	-0.024261	0.032959	0.007172	0.11017	-0.1799	0.15961	-0.009766	0.029449	-0.20996	-0.31052	-0.096893	0.019073	-0.38559	0.020294	0.001678	0.016174	0.046997	-0.10391	0.013733	0.45258	0.053101	-0.003052	-0.00412
21.549	0.01297	-0.095062	-0.025024	-0.007324	-0.005341	-0.013885	0.11307	0.015564	-0.045776	-0.025024	0.007019	-0.004425	0.1001	-0.11444	0.062866	-0.024567	-0.006714	-0.22476	-0.43015	0.10773	-0.27618	-0.24384	0.020142	0.016937	-0.027008	0.027924	-0.095673	0.034027	0.46814	0.06073	0.00885	-0.002441
21.55	0.002899	-0.087433	-0.041351	-0.010529	-0.009003	-0.0177	0.12299	0.019989	-0.018311	-0.00824	0.087891	0.000763	-0.021667	-0.059814	-0.075989	-0.014648	-0.012665	-0.22003	-0.28717	0.15137	-0.17914	-0.11078	0.000763	0.001831	-0.038147	0.028229	-0.042572	-0.000458	0.23056	0.056152	-0.000916	-0.010071
21.551	0.007019	-0.064545	-0.029907	-0.015564	0.011597	-0.024414	0.15106	0.013885	0.007019	0.01358	0.14755	-0.003052	-0.061493	-0.035248	-0.048065	0.006561	0.015717	-0.15533	-0.22919	0.16586	-0.31311	-0.094604	-0.027008	0.034027	-0.03952	0.023804	0.013733	-0.014648	0.12085	0.097656	-0.00061	-0.013275
21.552	0.005035	-0.061188	-0.0177	-0.024872	0.014801	-0.032501	0.010681	0.023346	0.021515	0.018616	0.22614	-0.00351	-0.05722	0.016174	0.16464	-0.010529	0.010529	-0.084229	-0.37674	0.26169	-0.29602	-0.033875	0.031586	0.015564	0.016174	0.010986	0.087128	-0.00412	-0.13138	0.043335	-0.002289	-0.01297
21.553	0.002747	-0.06012	-0.001373	-0.046844	-0.011902	-0.048981	-0.091553	0.027924	0.048676	0.012512	0.112	-0.002441	-0.055389	0.004425	0.25513	0.000153	-0.071869	-0.1648	-0.513	0.16907	-0.28229	0.090485	0.097809	-0.057526	-0.018616	0.010834	0.074005	0.002899	0.48325	-0.14328	0.005493	-0.00946
21.554	0.011444	-0.042725	0.009918	0.007782	0.005493	-0.040741	-0.10529	0.027618	0.09552	-0.009766	0.030365	-0.001984	-0.048676	-0.037231	0.26581	-0.000153	-0.084229	-0.16464	-0.4071	0.083618	0.20172	0.000916	0.007629	-0.056915	0.04364	0.022736	0.04364	0.014343	0.27268	-0.34363	-0.001068	-0.00473
21.555	0.008545	-0.074463	0.014343	0.022736	-0.010681	-0.036621	-0.096588	0.026093	0.11658	-0.033264	-0.1741	-0.003357	0.012054	-0.085602	0.15717	-0.002289	0.000153	-0.18372	0.383	0.028839	0.15793	-0.22263	-0.050354	-0.066833	0.093079	-0.035248	-0.043793	-0.000916	-0.24445	-0.72037	-0.001678	-0.009766
